<svg width="57" height="13" viewBox="0 0 57 13" fill="none" xmlns="http://www.w3.org/2000/svg">
<path d="M1.88636 12L3.05682 8.70455H7.76136L8.93182 12H10.4091L6.13636 0.363636H4.68182L0.409091 12H1.88636ZM3.5 7.45455L5.36364 2.20455H5.45455L7.31818 7.45455H3.5ZM12.0398 12H13.3807V6.47727C13.3807 5.29545 14.3125 4.43182 15.5852 4.43182C15.9432 4.43182 16.3125 4.5 16.4034 4.52273V3.15909C16.25 3.14773 15.8977 3.13636 15.6989 3.13636C14.6534 3.13636 13.7443 3.72727 13.4261 4.59091H13.3352V3.27273H12.0398V12ZM22.3352 3.27273H20.4716V1.18182H19.1307V3.27273H17.8125V4.40909H19.1307V9.86364C19.1307 11.3864 20.358 12.1136 21.4943 12.1136C21.9943 12.1136 22.3125 12.0227 22.4943 11.9545L22.2216 10.75C22.108 10.7727 21.9261 10.8182 21.6307 10.8182C21.0398 10.8182 20.4716 10.6364 20.4716 9.5V4.40909H22.3352V3.27273ZM24.3523 12H25.6932V3.27273H24.3523V12ZM25.0341 1.81818C25.5568 1.81818 25.9886 1.40909 25.9886 0.909091C25.9886 0.409091 25.5568 0 25.0341 0C24.5114 0 24.0795 0.409091 24.0795 0.909091C24.0795 1.40909 24.5114 1.81818 25.0341 1.81818ZM31.6946 12.1818C33.6264 12.1818 34.8991 11 35.1264 9.45455H33.7855C33.5355 10.4091 32.7401 10.9773 31.6946 10.9773C30.1037 10.9773 29.081 9.65909 29.081 7.63636C29.081 5.65909 30.1264 4.36364 31.6946 4.36364C32.8764 4.36364 33.581 5.09091 33.7855 5.88636H35.1264C34.8991 4.25 33.5128 3.15909 31.6719 3.15909C29.3082 3.15909 27.7401 5.02273 27.7401 7.68182C27.7401 10.2955 29.2401 12.1818 31.6946 12.1818ZM38.4276 0.363636H37.0866V12H38.4276V0.363636ZM44.5426 12.1818C46.3153 12.1818 47.6108 11.2955 48.0199 9.97727L46.7244 9.61364C46.3835 10.5227 45.5938 10.9773 44.5426 10.9773C42.9688 10.9773 41.8835 9.96023 41.821 8.09091H48.1562V7.52273C48.1562 4.27273 46.2244 3.15909 44.4062 3.15909C42.0426 3.15909 40.4744 5.02273 40.4744 7.70455C40.4744 10.3864 42.0199 12.1818 44.5426 12.1818ZM41.821 6.93182C41.9119 5.57386 42.8722 4.36364 44.4062 4.36364C45.8608 4.36364 46.7926 5.45455 46.7926 6.93182H41.821ZM56.3778 5.22727C55.9574 3.98864 55.0142 3.15909 53.2869 3.15909C51.446 3.15909 50.0824 4.20455 50.0824 5.68182C50.0824 6.88636 50.7983 7.69318 52.4006 8.06818L53.8551 8.40909C54.7358 8.61364 55.1506 9.03409 55.1506 9.63636C55.1506 10.3864 54.3551 11 53.1051 11C52.0085 11 51.321 10.5284 51.0824 9.59091L49.8097 9.90909C50.1222 11.392 51.3438 12.1818 53.1278 12.1818C55.1562 12.1818 56.5369 11.0739 56.5369 9.56818C56.5369 8.35227 55.7756 7.58523 54.2188 7.20455L52.9233 6.88636C51.8892 6.63068 51.4233 6.28409 51.4233 5.61364C51.4233 4.86364 52.2188 4.31818 53.2869 4.31818C54.4574 4.31818 54.9403 4.96591 55.1733 5.56818L56.3778 5.22727Z" fill="black"/>
</svg>
