<svg width="43" height="13" viewBox="0 0 43 13" fill="none" xmlns="http://www.w3.org/2000/svg">
<path d="M0.409091 12H1.81818V6.79545H8.02273V12H9.43182V0.363636H8.02273V5.54545H1.81818V0.363636H0.409091V12ZM15.6165 12.1818C17.9801 12.1818 19.571 10.3864 19.571 7.68182C19.571 4.95455 17.9801 3.15909 15.6165 3.15909C13.2528 3.15909 11.6619 4.95455 11.6619 7.68182C11.6619 10.3864 13.2528 12.1818 15.6165 12.1818ZM15.6165 10.9773C13.821 10.9773 13.0028 9.43182 13.0028 7.68182C13.0028 5.93182 13.821 4.36364 15.6165 4.36364C17.4119 4.36364 18.2301 5.93182 18.2301 7.68182C18.2301 9.43182 17.4119 10.9773 15.6165 10.9773ZM21.6179 12H22.9588V6.54545C22.9588 5.26705 23.8906 4.36364 24.9361 4.36364C25.9531 4.36364 26.6634 5.02841 26.6634 6.02273V12H28.027V6.31818C28.027 5.19318 28.7315 4.36364 29.9588 4.36364C30.9134 4.36364 31.7315 4.86932 31.7315 6.15909V12H33.0724V6.15909C33.0724 4.10795 31.9702 3.15909 30.4134 3.15909C29.1634 3.15909 28.2486 3.73295 27.7997 4.63636H27.7088C27.277 3.70455 26.5156 3.15909 25.3679 3.15909C24.2315 3.15909 23.3906 3.70455 23.027 4.63636H22.9134V3.27273H21.6179V12ZM39.1832 12.1818C40.956 12.1818 42.2514 11.2955 42.6605 9.97727L41.3651 9.61364C41.0241 10.5227 40.2344 10.9773 39.1832 10.9773C37.6094 10.9773 36.5241 9.96023 36.4616 8.09091H42.7969V7.52273C42.7969 4.27273 40.8651 3.15909 39.0469 3.15909C36.6832 3.15909 35.1151 5.02273 35.1151 7.70455C35.1151 10.3864 36.6605 12.1818 39.1832 12.1818ZM36.4616 6.93182C36.5526 5.57386 37.5128 4.36364 39.0469 4.36364C40.5014 4.36364 41.4332 5.45455 41.4332 6.93182H36.4616Z" fill="black"/>
</svg>
